<?xml version="1.0" encoding="utf-8"?>
<!-- Generator: Adobe Illustrator 28.2.0, SVG Export Plug-In . SVG Version: 6.00 Build 0)  -->
<svg version="1.1" id="Layer_2_00000131332932109637969490000013114592813903581606_"
	 xmlns="http://www.w3.org/2000/svg" xmlns:xlink="http://www.w3.org/1999/xlink" x="0px" y="0px" viewBox="0 0 618.3 110.3"
	 style="enable-background:new 0 0 618.3 110.3;" xml:space="preserve">
<style type="text/css">
	.st0{fill:url(#SVGID_1_);}
	.st1{fill:url(#SVGID_00000011030290777970358520000016641599747619535781_);}
	.st2{fill:url(#SVGID_00000091704594484251360350000014314146337338934698_);}
	.st3{fill:url(#SVGID_00000099635077330370735540000000859666947146204064_);}
	.st4{fill:url(#SVGID_00000178912372878777417220000007195076895317857458_);}
	.st5{fill:url(#SVGID_00000169518090310080216540000001854231913021888681_);}
	.st6{fill:url(#SVGID_00000072269679350893144730000000730390745338955179_);}
	.st7{fill:url(#SVGID_00000030469388036745250800000006722129376682163380_);}
	.st8{fill:url(#SVGID_00000003818337842751672520000004720025358571692957_);}
	.st9{fill:url(#SVGID_00000152961563049775570640000009808921221807650693_);}
	.st10{fill:url(#SVGID_00000008149737335158782080000014000251685355866554_);}
	.st11{fill:url(#SVGID_00000046304583097082348280000000954726718417375145_);}
	.st12{fill:url(#SVGID_00000113334027068645616130000010522556581134991011_);}
</style>
<g>
	<linearGradient id="SVGID_1_" gradientUnits="userSpaceOnUse" x1="468.8384" y1="480.0368" x2="-24.1616" y2="27.0368">
		<stop  offset="0" style="stop-color:#4A82B8"/>
		<stop  offset="1" style="stop-color:#1D69F3"/>
	</linearGradient>
	<path class="st0" d="M51.5,69.5c2.2-3.4,3.2-7.5,3.2-12.4s-1.1-9-3.2-12.4s-5.1-6.1-8.9-8c-3.8-1.8-8.2-2.8-13.3-2.8H0v68.2h18.5
		V79.7h6.4l12,22.5h20.1L43.1,76.8C46.7,75.1,49.5,72.7,51.5,69.5z M18.5,48.8H25c2.2,0,4.1,0.3,5.6,0.9c1.6,0.6,2.8,1.5,3.6,2.7
		s1.2,2.8,1.2,4.8s-0.4,3.5-1.2,4.7c-0.8,1.2-2,2.1-3.6,2.6c-1.6,0.6-3.4,0.8-5.6,0.8h-6.5V48.8z"/>
	
		<linearGradient id="SVGID_00000152249075373570199190000009297430537269214143_" gradientUnits="userSpaceOnUse" x1="502.7391" y1="443.1426" x2="9.7391" y2="-9.8573">
		<stop  offset="0" style="stop-color:#4A82B8"/>
		<stop  offset="1" style="stop-color:#1D69F3"/>
	</linearGradient>
	<path style="fill:url(#SVGID_00000152249075373570199190000009297430537269214143_);" d="M111.4,37.1c-5-2.7-10.6-4-16.8-4
		s-11.8,1.3-16.8,4c-5,2.7-9,6.6-11.9,11.8s-4.4,11.6-4.4,19.2s1.5,13.9,4.4,19.1s6.9,9.2,11.9,11.8c5,2.7,10.6,4,16.8,4
		s11.8-1.3,16.8-4c5-2.7,9-6.6,11.9-11.8c2.9-5.2,4.4-11.6,4.4-19.2s-1.5-14-4.4-19.2S116.4,39.8,111.4,37.1L111.4,37.1z
		 M107.1,78.5c-1.1,2.8-2.7,4.9-4.7,6.4S97.7,87,94.6,87s-5.6-0.7-7.7-2.2c-2.1-1.4-3.7-3.6-4.8-6.4s-1.6-6.2-1.6-10.3
		s0.5-7.5,1.6-10.4c1.1-2.8,2.7-5,4.8-6.4c2.1-1.5,4.7-2.2,7.7-2.2s5.7,0.7,7.8,2.2c2.1,1.5,3.7,3.6,4.7,6.4s1.6,6.3,1.6,10.4
		S108.2,75.6,107.1,78.5z"/>
	
		<linearGradient id="SVGID_00000183242713350930121290000011565739814544304571_" gradientUnits="userSpaceOnUse" x1="535.9144" y1="407.0379" x2="42.9144" y2="-45.9621">
		<stop  offset="0" style="stop-color:#4A82B8"/>
		<stop  offset="1" style="stop-color:#1D69F3"/>
	</linearGradient>
	<path style="fill:url(#SVGID_00000183242713350930121290000011565739814544304571_);" d="M198.8,34h-21.9l-13.6,17.5
		c-2.4,3.1-4.4,5.9-6,8.3c-1.4,2.1-2.6,4.2-3.7,6.2l0.3-17.3V34h-18.5v68.2h18.5v-17l8.4-9.6l16,26.7h21.8l-25.1-38.9L198.8,34
		L198.8,34z"/>
	
		<linearGradient id="SVGID_00000005264281117857391400000013799575576050547353_" gradientUnits="userSpaceOnUse" x1="563.7964" y1="376.6939" x2="70.7965" y2="-76.3061">
		<stop  offset="0" style="stop-color:#4A82B8"/>
		<stop  offset="1" style="stop-color:#1D69F3"/>
	</linearGradient>
	<path style="fill:url(#SVGID_00000005264281117857391400000013799575576050547353_);" d="M226.4,34l-22.1,68.2H225l3.7-13.1h21
		l3.9,13.1h21L251.7,34H226.4L226.4,34z M245.6,75.3h-12.9c1.6-5.6,3-11.4,4.3-17.4c0.6-2.9,1.2-5.9,1.9-8.8
		c0.7,2.9,1.4,5.8,2.1,8.8C242.4,63.9,243.9,69.7,245.6,75.3L245.6,75.3z"/>
	
		<linearGradient id="SVGID_00000141429725152130525340000011282797491093188994_" gradientUnits="userSpaceOnUse" x1="611.2397" y1="325.0615" x2="118.2397" y2="-127.9385">
		<stop  offset="0" style="stop-color:#4A82B8"/>
		<stop  offset="4.291715e-02" style="stop-color:#4881BB"/>
		<stop  offset="1" style="stop-color:#1D69F3"/>
	</linearGradient>
	<path style="fill:url(#SVGID_00000141429725152130525340000011282797491093188994_);" d="M342.5,81.3c-0.6,1.2-1.4,2.2-2.5,3.1
		s-2.2,1.5-3.5,2c-1.3,0.5-2.9,0.7-4.6,0.7c-3,0-5.6-0.7-7.7-2.1c-2.1-1.4-3.8-3.5-4.9-6.3s-1.7-6.3-1.7-10.4s0.5-7.4,1.6-10.2
		s2.7-5,4.9-6.5c2.1-1.5,4.8-2.3,7.9-2.3c1.7,0,3.2,0.2,4.6,0.7c1.4,0.5,2.5,1.1,3.5,2c1,0.8,1.8,1.9,2.4,3.1c0.6,1.2,1,2.5,1.2,4
		h18.8c-0.4-4.1-1.5-7.8-3.2-11c-1.7-3.2-3.9-5.9-6.6-8.1c-2.7-2.2-5.9-3.9-9.5-5c-3.6-1.1-7.5-1.7-11.8-1.7c-6.1,0-11.6,1.3-16.6,4
		c-5,2.7-8.9,6.6-11.9,11.8s-4.4,11.6-4.4,19.2s1.4,13.9,4.3,19.1c2.9,5.2,6.8,9.2,11.8,11.8s10.5,4,16.8,4c5,0,9.4-0.8,13.2-2.4
		c3.8-1.6,6.9-3.6,9.5-6.2c2.6-2.6,4.6-5.4,6-8.4s2.2-6,2.4-8.9h-18.8C343.5,78.8,343.1,80.1,342.5,81.3L342.5,81.3z"/>
	
		<linearGradient id="SVGID_00000168086329197415126790000001049412581017244546_" gradientUnits="userSpaceOnUse" x1="633.0101" y1="301.3687" x2="140.0101" y2="-151.6313">
		<stop  offset="0" style="stop-color:#4A82B8"/>
		<stop  offset="1" style="stop-color:#1D69F3"/>
	</linearGradient>
	<polygon style="fill:url(#SVGID_00000168086329197415126790000001049412581017244546_);" points="388.5,70.7 388.4,70.7 388.4,34 
		369.9,34 369.9,102.2 416,102.2 416,83.4 388.5,73.8 	"/>
	
		<linearGradient id="SVGID_00000059301321073127380580000003546152128522559630_" gradientUnits="userSpaceOnUse" x1="646.8458" y1="286.3113" x2="153.8458" y2="-166.6887">
		<stop  offset="0" style="stop-color:#4A82B8"/>
		<stop  offset="1" style="stop-color:#1D69F3"/>
	</linearGradient>
	<polygon style="fill:url(#SVGID_00000059301321073127380580000003546152128522559630_);" points="422.9,102.2 470.1,102.2 
		422.9,85.8 	"/>
	
		<linearGradient id="SVGID_00000003068392924751855040000017785969308955662493_" gradientUnits="userSpaceOnUse" x1="681.5325" y1="248.5617" x2="188.5325" y2="-204.4383">
		<stop  offset="0" style="stop-color:#4A82B8"/>
		<stop  offset="1" style="stop-color:#1D69F3"/>
	</linearGradient>
	<polygon style="fill:url(#SVGID_00000003068392924751855040000017785969308955662493_);" points="472.1,34 423.9,34 472.1,44.4 	
		"/>
	
		<linearGradient id="SVGID_00000066478086003261783500000015868563840170920069_" gradientUnits="userSpaceOnUse" x1="700.4589" y1="227.9642" x2="207.4589" y2="-225.0358">
		<stop  offset="0" style="stop-color:#4A82B8"/>
		<stop  offset="1" style="stop-color:#1D69F3"/>
	</linearGradient>
	<polygon style="fill:url(#SVGID_00000066478086003261783500000015868563840170920069_);" points="500.2,34 495.2,49.3 532.8,57.4 
		526.5,75.3 522.7,86.3 523.6,89.1 527.5,102.2 548.5,102.2 525.5,34 	"/>
	
		<linearGradient id="SVGID_00000050624374642140631010000018162478184618871174_" gradientUnits="userSpaceOnUse" x1="727.9813" y1="198.0115" x2="234.9814" y2="-254.9885">
		<stop  offset="0" style="stop-color:#4A82B8"/>
		<stop  offset="1" style="stop-color:#1D69F3"/>
	</linearGradient>
	<path style="fill:url(#SVGID_00000050624374642140631010000018162478184618871174_);" d="M599.3,34v25c0,2.2,0.1,4.8,0.3,8
		c0.2,3.2,0.4,6.4,0.6,9.6c0.1,1,0.1,1.9,0.2,2.8c-0.5-1.4-1-2.7-1.5-4c-1.1-2.8-2.3-5.3-3.5-7.7s-2.5-4.6-3.9-7L575.1,34h-20.2
		v68.2h19V77.3c0-1.9-0.1-4.2-0.2-6.9s-0.3-5.7-0.5-8.8c-0.1-1.4-0.2-2.8-0.3-4.2c0.7,1.5,1.3,2.9,1.8,4.2c1.2,2.8,2.5,5.3,3.8,7.8
		c1.3,2.5,2.8,5.1,4.5,7.9l15.2,24.9h20.2V34H599.3L599.3,34z"/>
	
		<linearGradient id="SVGID_00000047757449557508128100000007470120909347725715_" gradientUnits="userSpaceOnUse" x1="671.7253" y1="259.235" x2="178.7253" y2="-193.765">
		<stop  offset="0" style="stop-color:#4A82B8"/>
		<stop  offset="1" style="stop-color:#1D69F3"/>
	</linearGradient>
	<path style="fill:url(#SVGID_00000047757449557508128100000007470120909347725715_);" d="M503.4,86.5l-5,3.2l3.4-10.5
		c0.5-1.5-0.3-3.1-1.8-3.6s-3.1,0.3-3.6,1.8l1.3-4.1c0.4-1.3-0.3-2.8-1.6-3.2c-1.3-0.4-2.8,0.3-3.2,1.6l-0.6,1.9
		c0.4-1.3-0.3-2.8-1.6-3.2c-1.3-0.4-2.8,0.3-3.2,1.6l-1,3.1c0.4-1.3-0.3-2.8-1.6-3.2s-2.8,0.3-3.2,1.6l-9.6,29.6l19.9,6.9
		c0,0,0,0,0,0l3.7-11.4l11.3-7.3c1.4-0.9,1.8-2.8,0.9-4.2C506.7,86,504.8,85.6,503.4,86.5L503.4,86.5z"/>
	
		<linearGradient id="SVGID_00000175318594437383101860000013815637993562781080_" gradientUnits="userSpaceOnUse" x1="701.9476" y1="226.344" x2="208.9476" y2="-226.656">
		<stop  offset="0" style="stop-color:#4A82B8"/>
		<stop  offset="1" style="stop-color:#1D69F3"/>
	</linearGradient>
	<path style="fill:url(#SVGID_00000175318594437383101860000013815637993562781080_);" d="M456.8,12.1c5.9,0.6,11.2,2.4,11.5,11.5
		c0,0,0,0.1,0,0.2c0,0.1,0.1,0.2,0.2,0.2s0.2-0.1,0.2-0.2c0,0,0-0.1,0-0.2c0.6-9.3,6.1-10.9,12.1-11.3c0.1,0,0.2-0.1,0.2-0.2l0,0
		l0,0c0-0.1-0.1-0.2-0.2-0.2c-6-0.6-11.4-2.2-11.8-11.6c0-0.1,0-0.1,0-0.2c0-0.1-0.1-0.2-0.2-0.2s-0.2,0.1-0.2,0.2
		c0,0.1,0,0.1,0,0.2c-0.6,9.2-5.9,10.8-11.8,11.3c-0.1,0-0.2,0.1-0.2,0.2l0,0l0,0l0,0C456.6,12,456.7,12.1,456.8,12.1L456.8,12.1z"
		/>
	
		<linearGradient id="SVGID_00000031206244686160249150000009615641157273393323_" gradientUnits="userSpaceOnUse" x1="654.8541" y1="277.5959" x2="161.854" y2="-175.4041">
		<stop  offset="0" style="stop-color:#4A82B8"/>
		<stop  offset="1" style="stop-color:#1D69F3"/>
	</linearGradient>
	<path style="fill:url(#SVGID_00000031206244686160249150000009615641157273393323_);" d="M437.8,61.7c0.2,0,0.3-0.2,0.3-0.3l0,0
		c0-0.2-0.1-0.3-0.3-0.3c-9.1-0.8-17.4-3.4-17.9-17.5c0-0.1,0-0.2,0-0.2c0-0.2-0.2-0.4-0.4-0.4c-0.2,0-0.4,0.2-0.4,0.4
		c0,0.1,0,0.2,0,0.2c-0.9,13.9-8.9,16.4-17.9,17.1c-0.2,0-0.4,0.2-0.4,0.4l0,0l0,0l0,0c0,0.2,0.1,0.4,0.3,0.4
		c8.9,0.9,17,3.6,17.5,17.5c0,0.1,0,0.2,0,0.2c0,0.2,0.2,0.4,0.4,0.4c0.2,0,0.4-0.2,0.4-0.4c0-0.1,0-0.2,0-0.2
		C420.3,64.7,428.6,62.3,437.8,61.7L437.8,61.7z"/>
</g>
</svg>
