<?xml version="1.0" encoding="utf-8"?>
<!-- Generator: Adobe Illustrator 28.2.0, SVG Export Plug-In . SVG Version: 6.00 Build 0)  -->
<svg version="1.1" id="Layer_2_00000081608538772014488030000011525353788515021486_"
	 xmlns="http://www.w3.org/2000/svg" xmlns:xlink="http://www.w3.org/1999/xlink" x="0px" y="0px" viewBox="0 0 618.3 110.3"
	 style="enable-background:new 0 0 618.3 110.3;" xml:space="preserve">
<style type="text/css">
	.st0{fill:#111111;}
</style>
<g id="Layer_1-2">
	<g>
		<path class="st0" d="M51.5,69.5c2.2-3.4,3.2-7.5,3.2-12.4s-1.1-9-3.2-12.4s-5.1-6.1-8.9-8c-3.8-1.8-8.2-2.8-13.3-2.8H0v68.2h18.5
			V79.7h6.4l12,22.5h20.1L43.1,76.8C46.7,75.1,49.5,72.7,51.5,69.5z M18.5,48.8H25c2.2,0,4.1,0.3,5.6,0.9c1.6,0.6,2.8,1.5,3.6,2.7
			s1.2,2.8,1.2,4.8s-0.4,3.5-1.2,4.7c-0.8,1.2-2,2.1-3.6,2.6c-1.6,0.6-3.4,0.8-5.6,0.8h-6.5V48.8z"/>
		<path class="st0" d="M111.4,37.1c-5-2.7-10.6-4-16.8-4s-11.8,1.3-16.8,4c-5,2.7-9,6.6-11.9,11.8s-4.4,11.6-4.4,19.2
			s1.5,13.9,4.4,19.1s6.9,9.2,11.9,11.8c5,2.7,10.6,4,16.8,4s11.8-1.3,16.8-4c5-2.7,9-6.6,11.9-11.8c2.9-5.2,4.4-11.6,4.4-19.2
			s-1.5-14-4.4-19.2S116.4,39.8,111.4,37.1L111.4,37.1z M107.1,78.5c-1.1,2.8-2.7,4.9-4.7,6.4S97.7,87,94.6,87s-5.6-0.7-7.7-2.2
			c-2.1-1.4-3.7-3.6-4.8-6.4s-1.6-6.2-1.6-10.3s0.5-7.5,1.6-10.4c1.1-2.8,2.7-5,4.8-6.4c2.1-1.5,4.7-2.2,7.7-2.2s5.7,0.7,7.8,2.2
			c2.1,1.5,3.7,3.6,4.7,6.4s1.6,6.3,1.6,10.4S108.2,75.6,107.1,78.5z"/>
		<path class="st0" d="M198.8,34h-21.9l-13.6,17.5c-2.4,3.1-4.4,5.9-6,8.3c-1.4,2.1-2.6,4.2-3.7,6.2l0.3-17.3V34h-18.5v68.2h18.5
			v-17l8.4-9.6l16,26.7h21.8l-25.1-38.9L198.8,34L198.8,34z"/>
		<path class="st0" d="M226.4,34l-22.1,68.2H225l3.7-13.1h21l3.9,13.1h21L251.7,34H226.4L226.4,34z M245.6,75.3h-12.9
			c1.6-5.6,3-11.4,4.3-17.4c0.6-2.9,1.2-5.9,1.9-8.8c0.7,2.9,1.4,5.8,2.1,8.8C242.4,63.9,243.9,69.7,245.6,75.3L245.6,75.3z"/>
		<path class="st0" d="M342.5,81.3c-0.6,1.2-1.4,2.2-2.5,3.1s-2.2,1.5-3.5,2c-1.3,0.5-2.9,0.7-4.6,0.7c-3,0-5.6-0.7-7.7-2.1
			c-2.1-1.4-3.8-3.5-4.9-6.3s-1.7-6.3-1.7-10.4s0.5-7.4,1.6-10.2s2.7-5,4.9-6.5c2.1-1.5,4.8-2.3,7.9-2.3c1.7,0,3.2,0.2,4.6,0.7
			c1.4,0.5,2.5,1.1,3.5,2c1,0.8,1.8,1.9,2.4,3.1c0.6,1.2,1,2.5,1.2,4h18.8c-0.4-4.1-1.5-7.8-3.2-11c-1.7-3.2-3.9-5.9-6.6-8.1
			c-2.7-2.2-5.9-3.9-9.5-5c-3.6-1.1-7.5-1.7-11.8-1.7c-6.1,0-11.6,1.3-16.6,4c-5,2.7-8.9,6.6-11.9,11.8s-4.4,11.6-4.4,19.2
			s1.4,13.9,4.3,19.1c2.9,5.2,6.8,9.2,11.8,11.8s10.5,4,16.8,4c5,0,9.4-0.8,13.2-2.4c3.8-1.6,6.9-3.6,9.5-6.2c2.6-2.6,4.6-5.4,6-8.4
			s2.2-6,2.4-8.9h-18.8C343.5,78.8,343.1,80.1,342.5,81.3L342.5,81.3z"/>
		<polygon class="st0" points="388.5,70.7 388.4,70.7 388.4,34 369.9,34 369.9,102.2 416,102.2 416,83.4 388.5,73.8 		"/>
		<polygon class="st0" points="422.9,102.2 470.1,102.2 422.9,85.8 		"/>
		<polygon class="st0" points="472.1,34 423.9,34 472.1,44.4 		"/>
		<polygon class="st0" points="500.2,34 495.2,49.3 532.8,57.4 526.5,75.3 522.7,86.3 523.6,89.1 527.5,102.2 548.5,102.2 525.5,34 
					"/>
		<path class="st0" d="M599.3,34v25c0,2.2,0.1,4.8,0.3,8c0.2,3.2,0.4,6.4,0.6,9.6c0.1,1,0.1,1.9,0.2,2.8c-0.5-1.4-1-2.7-1.5-4
			c-1.1-2.8-2.3-5.3-3.5-7.7s-2.5-4.6-3.9-7L575.1,34h-20.2v68.2h19V77.3c0-1.9-0.1-4.2-0.2-6.9s-0.3-5.7-0.5-8.8
			c-0.1-1.4-0.2-2.8-0.3-4.2c0.7,1.5,1.3,2.9,1.8,4.2c1.2,2.8,2.5,5.3,3.8,7.8c1.3,2.5,2.8,5.1,4.5,7.9l15.2,24.9h20.2V34H599.3
			L599.3,34z"/>
		<path class="st0" d="M503.4,86.5l-5,3.2l3.4-10.5c0.5-1.5-0.3-3.1-1.8-3.6s-3.1,0.3-3.6,1.8l1.3-4.1c0.4-1.3-0.3-2.8-1.6-3.2
			c-1.3-0.4-2.8,0.3-3.2,1.6l-0.6,1.9c0.4-1.3-0.3-2.8-1.6-3.2c-1.3-0.4-2.8,0.3-3.2,1.6l-1,3.1c0.4-1.3-0.3-2.8-1.6-3.2
			s-2.8,0.3-3.2,1.6l-9.6,29.6l19.9,6.9c0,0,0,0,0,0l3.7-11.4l11.3-7.3c1.4-0.9,1.8-2.8,0.9-4.2C506.7,86,504.8,85.6,503.4,86.5
			L503.4,86.5z"/>
		<path class="st0" d="M456.8,12.1c5.9,0.6,11.2,2.4,11.5,11.5c0,0,0,0.1,0,0.2c0,0.1,0.1,0.2,0.2,0.2s0.2-0.1,0.2-0.2
			c0,0,0-0.1,0-0.2c0.6-9.3,6.1-10.9,12.1-11.3c0.1,0,0.2-0.1,0.2-0.2l0,0l0,0c0-0.1-0.1-0.2-0.2-0.2c-6-0.6-11.4-2.2-11.8-11.6
			c0-0.1,0-0.1,0-0.2c0-0.1-0.1-0.2-0.2-0.2s-0.2,0.1-0.2,0.2c0,0.1,0,0.1,0,0.2c-0.6,9.2-5.9,10.8-11.8,11.3
			c-0.1,0-0.2,0.1-0.2,0.2l0,0l0,0l0,0C456.6,12,456.7,12.1,456.8,12.1L456.8,12.1z"/>
		<path class="st0" d="M437.8,61.7c0.2,0,0.3-0.2,0.3-0.3l0,0c0-0.2-0.1-0.3-0.3-0.3c-9.1-0.8-17.4-3.4-17.9-17.5c0-0.1,0-0.2,0-0.2
			c0-0.2-0.2-0.4-0.4-0.4c-0.2,0-0.4,0.2-0.4,0.4c0,0.1,0,0.2,0,0.2c-0.9,13.9-8.9,16.4-17.9,17.1c-0.2,0-0.4,0.2-0.4,0.4l0,0l0,0
			l0,0c0,0.2,0.1,0.4,0.3,0.4c8.9,0.9,17,3.6,17.5,17.5c0,0.1,0,0.2,0,0.2c0,0.2,0.2,0.4,0.4,0.4c0.2,0,0.4-0.2,0.4-0.4
			c0-0.1,0-0.2,0-0.2C420.3,64.7,428.6,62.3,437.8,61.7L437.8,61.7z"/>
	</g>
</g>
</svg>
