<?xml version="1.0" encoding="UTF-8"?>
<svg id="Layer_2" xmlns="http://www.w3.org/2000/svg" version="1.1" viewBox="0 0 618.3 110.3">
  <!-- Generator: Adobe Illustrator 30.0.0, SVG Export Plug-In . SVG Version: 2.1.1 Build 123)  -->
  <defs>
    <style>
      .st0 {
        fill: #2d2d2d;
      }
    </style>
  </defs>
  <path class="st0" d="M51.5,69.5c2.2-3.4,3.2-7.5,3.2-12.4s-1.1-9-3.2-12.4-5.1-6.1-8.9-8c-3.8-1.8-8.2-2.8-13.3-2.8H0v68.2h18.5v-22.4h6.4l12,22.5h20.1l-13.9-25.4c3.6-1.7,6.4-4.1,8.4-7.3ZM18.5,48.8h6.5c2.2,0,4.1.3,5.6.9,1.6.6,2.8,1.5,3.6,2.7s1.2,2.8,1.2,4.8-.4,3.5-1.2,4.7-2,2.1-3.6,2.6c-1.6.6-3.4.8-5.6.8h-6.5v-16.5Z"/>
  <path class="st0" d="M111.4,37.1c-5-2.7-10.6-4-16.8-4s-11.8,1.3-16.8,4-9,6.6-11.9,11.8-4.4,11.6-4.4,19.2,1.5,13.9,4.4,19.1,6.9,9.2,11.9,11.8c5,2.7,10.6,4,16.8,4s11.8-1.3,16.8-4,9-6.6,11.9-11.8c2.9-5.2,4.4-11.6,4.4-19.2s-1.5-14-4.4-19.2-6.9-9-11.9-11.7h0ZM107.1,78.5c-1.1,2.8-2.7,4.9-4.7,6.4s-4.7,2.1-7.8,2.1-5.6-.7-7.7-2.2c-2.1-1.4-3.7-3.6-4.8-6.4s-1.6-6.2-1.6-10.3.5-7.5,1.6-10.4c1.1-2.8,2.7-5,4.8-6.4,2.1-1.5,4.7-2.2,7.7-2.2s5.7.7,7.8,2.2c2.1,1.5,3.7,3.6,4.7,6.4s1.6,6.3,1.6,10.4-.5,7.5-1.6,10.4Z"/>
  <path class="st0" d="M198.8,34h-21.9l-13.6,17.5c-2.4,3.1-4.4,5.9-6,8.3-1.4,2.1-2.6,4.2-3.7,6.2l.3-17.3v-14.7h-18.5v68.2h18.5v-17l8.4-9.6,16,26.7h21.8l-25.1-38.9,23.8-29.4h0Z"/>
  <path class="st0" d="M226.4,34l-22.1,68.2h20.7l3.7-13.1h21l3.9,13.1h21l-22.9-68.2h-25.3ZM245.6,75.3h-12.9c1.6-5.6,3-11.4,4.3-17.4.6-2.9,1.2-5.9,1.9-8.8.7,2.9,1.4,5.8,2.1,8.8,1.4,6,2.9,11.8,4.6,17.4h0Z"/>
  <path class="st0" d="M342.5,81.3c-.6,1.2-1.4,2.2-2.5,3.1s-2.2,1.5-3.5,2-2.9.7-4.6.7c-3,0-5.6-.7-7.7-2.1s-3.8-3.5-4.9-6.3-1.7-6.3-1.7-10.4.5-7.4,1.6-10.2,2.7-5,4.9-6.5c2.1-1.5,4.8-2.3,7.9-2.3s3.2.2,4.6.7,2.5,1.1,3.5,2c1,.8,1.8,1.9,2.4,3.1.6,1.2,1,2.5,1.2,4h18.8c-.4-4.1-1.5-7.8-3.2-11s-3.9-5.9-6.6-8.1-5.9-3.9-9.5-5-7.5-1.7-11.8-1.7c-6.1,0-11.6,1.3-16.6,4s-8.9,6.6-11.9,11.8-4.4,11.6-4.4,19.2,1.4,13.9,4.3,19.1,6.8,9.2,11.8,11.8,10.5,4,16.8,4,9.4-.8,13.2-2.4c3.8-1.6,6.9-3.6,9.5-6.2s4.6-5.4,6-8.4,2.2-6,2.4-8.9h-18.8c-.2,1.5-.6,2.8-1.2,4h0Z"/>
  <polygon class="st0" points="388.5 70.7 388.4 70.7 388.4 34 369.9 34 369.9 102.2 416 102.2 416 83.4 388.5 73.8 388.5 70.7"/>
  <polygon class="st0" points="422.9 102.2 470.1 102.2 422.9 85.8 422.9 102.2"/>
  <polygon class="st0" points="472.1 34 423.9 34 472.1 44.4 472.1 34"/>
  <polygon class="st0" points="500.2 34 495.2 49.3 532.8 57.4 526.5 75.3 522.7 86.3 523.6 89.1 527.5 102.2 548.5 102.2 525.5 34 500.2 34"/>
  <path class="st0" d="M599.3,34v25c0,2.2,0,4.8.3,8,.2,3.2.4,6.4.6,9.6,0,1,0,1.9.2,2.8-.5-1.4-1-2.7-1.5-4-1.1-2.8-2.3-5.3-3.5-7.7s-2.5-4.6-3.9-7l-16.4-26.7h-20.2v68.2h19v-24.9c0-1.9,0-4.2-.2-6.9s-.3-5.7-.5-8.8c0-1.4-.2-2.8-.3-4.2.7,1.5,1.3,2.9,1.8,4.2,1.2,2.8,2.5,5.3,3.8,7.8s2.8,5.1,4.5,7.9l15.2,24.9h20.2V34h-19.1Z"/>
  <path class="st0" d="M503.4,86.5l-5,3.2,3.4-10.5c.5-1.5-.3-3.1-1.8-3.6s-3.1.3-3.6,1.8l1.3-4.1c.4-1.3-.3-2.8-1.6-3.2-1.3-.4-2.8.3-3.2,1.6l-.6,1.9c.4-1.3-.3-2.8-1.6-3.2-1.3-.4-2.8.3-3.2,1.6l-1,3.1c.4-1.3-.3-2.8-1.6-3.2s-2.8.3-3.2,1.6l-9.6,29.6,19.9,6.9h0l3.7-11.4,11.3-7.3c1.4-.9,1.8-2.8.9-4.2-1.2-1.1-3.1-1.5-4.5-.6h0Z"/>
  <path class="st0" d="M456.8,12.1c5.9.6,11.2,2.4,11.5,11.5v.2c0,.1.1.2.2.2s.2-.1.2-.2v-.2c.6-9.3,6.1-10.9,12.1-11.3.1,0,.2-.1.2-.2h0c0-.1-.1-.2-.2-.2-6-.6-11.4-2.2-11.8-11.6V.1c0-.1-.1-.2-.2-.2s-.2.1-.2.2v.2c-.6,9.2-5.9,10.8-11.8,11.3-.1,0-.2.1-.2.2h0c0,.2.1.3.2.3h0Z"/>
  <path class="st0" d="M437.8,61.7c.2,0,.3-.2.3-.3h0c0-.2-.1-.3-.3-.3-9.1-.8-17.4-3.4-17.9-17.5v-.2c0-.2-.2-.4-.4-.4s-.4.2-.4.4v.2c-.9,13.9-8.9,16.4-17.9,17.1-.2,0-.4.2-.4.4h0c0,.2.1.4.3.4,8.9.9,17,3.6,17.5,17.5v.2c0,.2.2.4.4.4s.4-.2.4-.4v-.2c.9-14.3,9.2-16.7,18.4-17.3h0Z"/>
</svg>