<?xml version="1.0" encoding="UTF-8"?>
<svg id="Layer_2" data-name="Layer 2" xmlns="http://www.w3.org/2000/svg" viewBox="0 0 345.32 135.69">
  <defs>
    <style>
      .cls-1 {
        fill: #161616;
        stroke-width: 0px;
      }
    </style>
  </defs>
  <g id="Layer_2-2" data-name="Layer 2">
    <g>
      <g>
        <path class="cls-1" d="M114.42,50.03h-10v-24.08l-25.54-11.36c-13.76-6.12-29.55-6.12-43.31,0l-25.54,11.36v5.91H.02v-12.41L31.5,5.46c16.35-7.27,35.1-7.27,51.45,0l31.48,14v30.58Z"/>
        <g>
          <line class="cls-1" x1="46.99" y1="74.58" x2="79.33" y2="119.15"/>
          <rect class="cls-1" x="58.16" y="69.33" width="10" height="55.07" transform="translate(-44.85 55.56) rotate(-35.97)"/>
        </g>
        <path class="cls-1" d="M77.82,103.17l-6.08-7.94c2.39-1.83,4.76-4.15,7.05-6.91l7.68,6.4c-2.77,3.32-5.68,6.16-8.66,8.44Z"/>
        <path class="cls-1" d="M49.34,24.66c-20.07,4.79-29.05,24.5-29.05,41.9v42.36h10v-11.18c6.26,7.15,15.83,13.06,29.6,13.06.46,0,.93,0,1.4-.02.41-.01.82-.03,1.22-.06v-.02l-7.42-10.22c-19.64-2.75-24.17-22.05-24.37-22.95l-.43.09v-11.06c0-10.06,4.5-28.15,21.37-32.18,14.9-3.56,25.48,8.12,25.92,8.62l7.52-6.59c-.6-.69-14.9-16.74-35.76-11.76Z"/>
        <path class="cls-1" d="M86.7,85.15c.61.09,1.23.14,1.87.14-.68,0-1.3-.04-1.87-.14Z"/>
        <path class="cls-1" d="M97.9,70.3c0,6.94-5.62,12.56-12.56,12.56s-12.56-5.62-12.56-12.56,12.56-24.27,12.56-24.27c0,0,12.56,17.33,12.56,24.27Z"/>
        <path class="cls-1" d="M120.44,47.19l3.83,7c1,1.83,2.51,3.34,4.34,4.34l7,3.83-7,3.83c-1.83,1-3.34,2.51-4.34,4.34l-3.83,7-3.83-7c-1-1.83-2.51-3.34-4.34-4.34l-7-3.83,7-3.83c1.83-1,3.34-2.51,4.34-4.34l3.83-7Z"/>
        <path class="cls-1" d="M133.56,32.94l1.73,3.15c.45.82,1.13,1.5,1.95,1.95l3.15,1.73-3.15,1.73c-.82.45-1.5,1.13-1.95,1.95l-1.73,3.15-1.73-3.15c-.45-.82-1.13-1.5-1.95-1.95l-3.15-1.73,3.15-1.73c.82-.45,1.5-1.13,1.95-1.95l1.73-3.15Z"/>
        <path class="cls-1" d="M103.95,73c-1.88,10.66-9.89,31.51-42.34,51.41-2.74,1.69-6.15,1.69-8.91,0C8.71,97.43,9.94,68.83,10.01,67.67v-22.52h12.83c1.41-4.01,3.12-6.73,6.44-10.32L.03,35.15v9.19s0,22.8,0,22.8c-.17,3.38-.55,36.35,47.45,65.8,2.99,1.84,6.34,2.76,9.69,2.76,3.35,0,6.7-.92,9.68-2.75,35.78-21.94,44.77-45.88,46.95-58.19l-9.85-1.74Z"/>
        <path class="cls-1" d="M44.46,78.53h-14.17v-10h14.17c3.01,0,5.83-.74,8.15-2.14,3.6-2.17,5.42-5.24,5.56-9.37.2-5.6-3.98-10.41-7.51-13.46l6.53-7.57c7.45,6.43,11.24,13.82,10.97,21.38-.27,7.56-3.86,13.64-10.39,17.58-3.88,2.34-8.48,3.57-13.31,3.57Z"/>
      </g>
      <g>
        <path class="cls-1" d="M183.93,38.34c2.82-2.55,4.23-5.78,4.23-9.68,0-4.41-1.53-7.89-4.58-10.46s-6.78-3.85-11.19-3.85h-18.05v41.9h12.05v-14.07h2.29l9.2,14.07h13.9l-11.14-15.68c1.19-.58,2.29-1.32,3.29-2.23ZM171.33,24.8c1.33,0,2.45.45,3.38,1.36.93.91,1.39,1.98,1.39,3.23,0,1.42-.49,2.59-1.46,3.51-.98.92-2.15,1.38-3.51,1.38h-4.74v-9.48h4.94Z"/>
        <path class="cls-1" d="M214.16,57.33c5.93,0,11.07-2.02,15.43-6.07s6.54-9.38,6.54-15.99-2.2-11.93-6.6-15.96c-4.4-4.03-9.52-6.04-15.38-6.04s-11.01,1.96-15.4,5.88-6.6,9.29-6.6,16.12,2.18,12.21,6.55,16.15c4.37,3.94,9.52,5.91,15.45,5.91ZM207.11,27.88c1.91-1.92,4.25-2.88,7.02-2.88s5.19.95,7.08,2.85c1.89,1.9,2.84,4.37,2.84,7.42s-.95,5.48-2.84,7.42c-1.89,1.94-4.25,2.91-7.08,2.91s-5.16-.96-7.05-2.88c-1.89-1.92-2.84-4.39-2.84-7.42s.96-5.5,2.87-7.42Z"/>
        <path class="cls-1" d="M253.9,44.4l3.07-3.47,9.69,15.33h27.12l1.83-5.88h12.72l1.83,5.88h13.2l-16.21-41.9h-10.06l-16.12,41.81-16.1-24.18,15.6-17.64h-14.63l-11.94,14.78v-14.78h-12.05v41.9h12.05v-11.85ZM301.85,29.8h.23l1.52,5.44,2.2,7.05h-7.69l2.21-7.11,1.52-5.38Z"/>
        <path class="cls-1" d="M179.7,99.66c-.82.53-1.73.93-2.72,1.21-1,.28-2,.42-3.01.42-2.91,0-5.3-.96-7.18-2.88-1.88-1.92-2.82-4.4-2.82-7.45s.95-5.54,2.85-7.43c1.9-1.89,4.3-2.84,7.21-2.84.98,0,1.87.1,2.69.29.82.2,1.63.53,2.44,1.01.81.48,1.71,1.23,2.71,2.27l7.93-8.6c-1.89-1.79-3.63-3.13-5.22-4.01-1.59-.88-3.3-1.55-5.12-2-1.82-.46-3.66-.69-5.51-.69-6.44,0-11.72,2.05-15.84,6.16-4.12,4.11-6.19,9.39-6.19,15.84s2.06,11.72,6.19,15.86c4.12,4.14,9.41,6.2,15.84,6.2,1.97,0,3.92-.24,5.85-.72s3.73-1.2,5.38-2.18c1.66-.98,3.45-2.48,5.38-4.51l-8.05-8.4c-1.05,1.09-1.99,1.9-2.81,2.43Z"/>
        <polygon class="cls-1" points="207.08 70.05 195.03 70.05 195.03 111.95 224.46 111.95 224.46 100.77 207.08 100.77 207.08 70.05"/>
        <polygon class="cls-1" points="241.2 95.77 257.23 95.77 257.23 86.32 241.2 86.32 241.2 81.23 258.14 81.23 258.14 70.05 229.52 70.05 229.52 111.95 258.4 111.95 258.4 100.77 241.2 100.77 241.2 95.77"/>
        <path class="cls-1" d="M278.21,70.05l-16.15,41.9h12.84l1.83-5.88h12.72l1.83,5.88h13.2l-16.21-41.9h-10.06ZM279.24,97.99l2.21-7.11,1.52-5.38h.23l1.52,5.44,2.2,7.05h-7.69Z"/>
        <polygon class="cls-1" points="333.77 70.05 333.77 84.65 333.97 91.12 333.77 91.12 320.37 70.05 308.55 70.05 308.55 111.95 320.1 111.95 320.1 96.56 319.9 90.15 320.13 90.15 334.76 111.95 345.32 111.95 345.32 70.05 333.77 70.05"/>
      </g>
    </g>
  </g>
</svg>