<?xml version="1.0" encoding="UTF-8"?>
<svg id="Layer_2" data-name="Layer 2" xmlns="http://www.w3.org/2000/svg" viewBox="0 0 975.88 258.12">
  <defs>
    <style>
      .cls-1 {
        fill: #93c5fd;
      }

      .cls-2 {
        fill: #216bee;
      }

      .cls-3 {
        fill: #7eb2db;
      }
    </style>
  </defs>
  <g id="Layer_1-2" data-name="Layer 1">
    <g>
      <g>
        <path class="cls-1" d="M69.49,241.9c-.06.25-.34.42-.6.48-.77.19-1.58.07-2.35-.04-3.04-.55-5.92-1.7-8.74-2.94-11.51-5.42-21.45-12.92-29.04-23.74-15.58-22.82-6.25-46.69,13.53-63.05,34.73-29.34,84.15-28.65,123.68-45.05,16.65-6.86,29.88-16.82,39.18-32.3,14.77-24.38,13.53-48.63-8.54-68.25,5.75,2.01,11.05,5.5,15.65,9.57,8.08,7.28,13.61,17.32,15.43,28.14,3.84,23.84-7.47,49.9-24.26,66.5-19.81,19.64-48.82,28.36-74.43,34.31-22.66,5.5-44.36,8.77-64.44,18.94-17.5,9.27-34.1,23.2-24.67,45.02,4.06,9.83,11.81,19.29,20.03,26.61,1.49,1.28,7.97,7,9.58,5.79h0Z"/>
        <path class="cls-2" d="M103.08,215.62c0,6.71,4.98,12.15,11.12,12.15s11.12-5.44,11.12-12.15-11.12-16.83-11.12-16.83c0,0-11.12,10.12-11.12,16.83Z"/>
        <path class="cls-2" d="M133.49,66.67h-61.33l-13.95,65.92c10.57-5.91,21.99-10.21,33.65-13.72l4.72-23.79h32.39c8.89,0,15.82,1.75,20.77,5.27,1.16.82,2.18,1.75,3.06,2.79,11.93-3.68,23-8.31,32.5-15.39-2.23-3.27-4.97-6.21-8.24-8.81-10.25-8.18-24.78-12.27-43.57-12.27Z"/>
        <path class="cls-2" d="M89.41,41.11c8.46-4.5,16.65-9.47,24.41-14.87,23.7,16.46,51.35,29.02,78.49,35.89-.12,4.01-.57,9.97-1.66,18.84,0,0,16.79-17,16.41-37.02-32.74-6.5-67.3-22.87-93.24-43.95-5.46,4.44-11.31,8.67-17.44,12.63C67.22,31.54,31.61,44.64.05,46.72c-.04.88-.05,1.77-.05,2.67,0,27.84,5.08,73.74,23.01,116.18,3.68-6.64,8.82-12.95,15.22-18.66-11.65-31.77-15.48-62.65-16.69-81.76,22.61-4.1,46.12-12.48,67.87-24.04Z"/>
        <path class="cls-2" d="M183.52,146.18c2.48-3.84,4.43-7.97,5.87-12.4-17.31,10.39-37.43,16.59-56.75,21.01-22.51,5.47-42.71,8.11-62.35,16.92-5.3,2.57-11.12,5.64-15.97,9.56-3.57,2.89-6.62,6.24-8.56,10.18-.08.16-.16.31-.23.47-.91,2.17-1.33,4.48-1.37,6.87h33.31l4.07-22.41,37.75-1.26c7,0,13.57-.56,19.71-1.66l16.53,23.78h36.8l-27.26-34.06c6.41-4.35,14.38-10.68,18.45-17Z"/>
        <path class="cls-2" d="M113.84,235.64c-14.21-5.98-26.93-14.73-38.14-26.18h-27.66c16.27,21.32,37.71,38.9,65.81,48.66,29.6-10.28,51.82-29.24,68.38-52.11h-27.13c-11.36,12.46-24.99,22.76-41.26,29.63Z"/>
      </g>
      <g>
        <g>
          <path class="cls-2" d="M264.32,144.27v-74.72h31.91c10.39,0,18.47,2.4,24.23,7.2,5.76,4.8,8.65,11.44,8.65,19.91,0,5.55-1.32,10.34-3.95,14.36-2.63,4.02-6.37,7.1-11.21,9.23-4.84,2.14-10.6,3.2-17.29,3.2h-22.74l7.69-7.58v28.39h-17.29ZM281.62,117.8l-7.69-8.11h21.77c5.34,0,9.32-1.16,11.95-3.47,2.63-2.31,3.95-5.5,3.95-9.55s-1.32-7.33-3.95-9.61c-2.63-2.28-6.62-3.42-11.95-3.42h-21.77l7.69-8.22v42.37ZM311.82,144.27l-18.68-27.11h18.47l18.89,27.11h-18.68Z"/>
          <path class="cls-2" d="M378.32,145.55c-5.91,0-11.37-.96-16.38-2.88-5.02-1.92-9.36-4.63-13.02-8.11-3.67-3.49-6.51-7.58-8.54-12.28-2.03-4.7-3.04-9.82-3.04-15.37s1.01-10.67,3.04-15.37c2.03-4.7,4.89-8.79,8.59-12.28,3.7-3.49,8.04-6.19,13.02-8.11,4.98-1.92,10.39-2.88,16.22-2.88s11.33.96,16.28,2.88c4.95,1.92,9.25,4.63,12.92,8.11,3.66,3.49,6.53,7.56,8.59,12.22,2.06,4.66,3.1,9.8,3.1,15.42s-1.03,10.69-3.1,15.42c-2.06,4.73-4.93,8.82-8.59,12.28-3.67,3.45-7.97,6.14-12.92,8.06-4.95,1.92-10.34,2.88-16.17,2.88ZM378.21,130.82c3.34,0,6.42-.57,9.23-1.71,2.81-1.14,5.28-2.77,7.42-4.91s3.79-4.66,4.96-7.58c1.17-2.92,1.76-6.15,1.76-9.71s-.59-6.79-1.76-9.71c-1.17-2.92-2.81-5.44-4.91-7.58-2.1-2.13-4.57-3.77-7.42-4.91-2.85-1.14-5.94-1.71-9.29-1.71s-6.42.57-9.23,1.71c-2.81,1.14-5.28,2.78-7.42,4.91-2.13,2.14-3.79,4.66-4.96,7.58-1.17,2.92-1.76,6.16-1.76,9.71s.59,6.71,1.76,9.66c1.17,2.95,2.81,5.5,4.91,7.63,2.1,2.14,4.57,3.77,7.42,4.91,2.85,1.14,5.94,1.71,9.29,1.71Z"/>
          <path class="cls-2" d="M431.37,144.27v-74.72h17.19v74.72h-17.19ZM446.85,127.19l-.96-19.96,35.76-37.68h19.21l-32.23,34.69-9.61,10.25-12.17,12.7ZM482.5,144.27l-26.58-32.56,11.31-12.28,35.44,44.83h-20.17Z"/>
          <path class="cls-2" d="M496.48,144.27l33.3-74.72h17.08l33.41,74.72h-18.14l-27.33-65.96h6.83l-27.43,65.96h-17.72ZM513.13,128.26l4.59-13.13h38.43l4.7,13.13h-47.71Z"/>
        </g>
        <g>
          <path class="cls-3" d="M650.97,145.55c-5.76,0-11.12-.94-16.06-2.83-4.95-1.88-9.23-4.57-12.86-8.06-3.63-3.49-6.46-7.58-8.49-12.27-2.03-4.7-3.04-9.86-3.04-15.48s1.01-10.78,3.04-15.48c2.03-4.7,4.87-8.79,8.54-12.28,3.66-3.49,7.95-6.17,12.86-8.06,4.91-1.88,10.28-2.83,16.12-2.83,6.48,0,12.33,1.12,17.56,3.36,5.23,2.24,9.62,5.53,13.18,9.87l-11.1,10.25c-2.56-2.92-5.41-5.11-8.54-6.57-3.13-1.46-6.55-2.19-10.25-2.19-3.49,0-6.69.57-9.61,1.71-2.92,1.14-5.44,2.78-7.58,4.91-2.13,2.14-3.79,4.66-4.96,7.58-1.17,2.92-1.76,6.16-1.76,9.71s.59,6.8,1.76,9.71c1.17,2.92,2.83,5.44,4.96,7.58s4.66,3.77,7.58,4.91c2.92,1.14,6.12,1.71,9.61,1.71,3.7,0,7.11-.73,10.25-2.19,3.13-1.46,5.98-3.68,8.54-6.67l11.1,10.25c-3.56,4.34-7.95,7.65-13.18,9.93-5.23,2.28-11.12,3.42-17.66,3.42Z"/>
          <path class="cls-3" d="M691.75,144.27v-74.72h17.29v60.63h37.47v14.09h-54.76Z"/>
          <path class="cls-3" d="M755.47,144.27v-74.72h56.46v13.88h-39.28v46.96h40.67v13.88h-57.85ZM771.37,113.1v-13.45h35.97v13.45h-35.97Z"/>
          <path class="cls-3" d="M816.52,144.27l33.3-74.72h17.08l33.41,74.72h-18.14l-27.33-65.96h6.83l-27.43,65.96h-17.72ZM833.17,128.26l4.59-13.13h38.43l4.7,13.13h-47.71Z"/>
          <path class="cls-3" d="M907.36,144.27v-74.72h14.3l44.08,53.8h-6.94v-53.8h17.08v74.72h-14.2l-44.19-53.8h6.94v53.8h-17.08Z"/>
        </g>
        <g>
          <path class="cls-2" d="M302.35,189.64v-17.9h6.98c1.57,0,2.91.25,4.01.74,1.11.5,1.96,1.21,2.56,2.15.6.94.89,2.05.89,3.35s-.3,2.41-.89,3.34c-.6.93-1.45,1.64-2.56,2.15-1.11.5-2.45.75-4.01.75h-5.57l1.15-1.2v6.62h-2.56ZM304.91,183.27l-1.15-1.28h5.5c1.64,0,2.88-.35,3.72-1.05s1.27-1.69,1.27-2.97-.42-2.27-1.27-2.97-2.08-1.05-3.72-1.05h-5.5l1.15-1.28v10.58Z"/>
          <path class="cls-2" d="M331.55,189.64v-17.9h6.98c2.32,0,4.14.55,5.47,1.65,1.33,1.1,1.99,2.63,1.99,4.59,0,1.3-.3,2.41-.9,3.34s-1.45,1.64-2.56,2.13c-1.11.5-2.45.74-4.01.74h-5.57l1.15-1.18v6.62h-2.56ZM334.1,183.27l-1.15-1.25h5.5c1.64,0,2.88-.35,3.72-1.06.84-.71,1.26-1.7,1.26-2.98s-.42-2.27-1.26-2.97c-.84-.7-2.08-1.05-3.72-1.05h-5.5l1.15-1.28v10.58ZM343.51,189.64l-4.55-6.49h2.74l4.6,6.49h-2.79Z"/>
          <path class="cls-2" d="M369.21,189.85c-1.36,0-2.63-.23-3.8-.69s-2.18-1.1-3.03-1.93c-.85-.83-1.52-1.79-1.99-2.9s-.72-2.32-.72-3.63.24-2.52.72-3.63c.48-1.11,1.14-2.07,1.99-2.9.85-.83,1.86-1.47,3.02-1.93s2.43-.69,3.81-.69,2.62.23,3.77.68c1.15.45,2.16,1.09,3.02,1.92.86.83,1.53,1.79,1.99,2.9.47,1.11.7,2.33.7,3.66s-.23,2.55-.7,3.65c-.47,1.11-1.13,2.08-1.99,2.9-.86.83-1.87,1.47-3.02,1.92-1.15.45-2.41.68-3.77.68ZM369.21,187.57c.99,0,1.9-.17,2.75-.51.84-.34,1.58-.82,2.2-1.44.62-.62,1.11-1.35,1.46-2.19.35-.84.52-1.75.52-2.74s-.17-1.9-.52-2.74c-.35-.83-.83-1.56-1.46-2.19s-1.35-1.1-2.2-1.44c-.84-.34-1.76-.51-2.75-.51s-1.93.17-2.77.51-1.58.82-2.21,1.44-1.12,1.35-1.47,2.19c-.35.84-.52,1.75-.52,2.74s.17,1.9.52,2.74c.35.83.84,1.56,1.47,2.19.63.62,1.37,1.1,2.21,1.44s1.77.51,2.77.51Z"/>
          <path class="cls-2" d="M393.6,189.64v-17.9h6.98c1.57,0,2.91.25,4.01.74,1.11.5,1.96,1.21,2.56,2.15.6.94.89,2.05.89,3.35s-.3,2.41-.89,3.34c-.6.93-1.45,1.64-2.56,2.15-1.11.5-2.45.75-4.01.75h-5.57l1.15-1.2v6.62h-2.56ZM396.15,183.27l-1.15-1.28h5.5c1.64,0,2.88-.35,3.72-1.05s1.27-1.69,1.27-2.97-.42-2.27-1.27-2.97-2.08-1.05-3.72-1.05h-5.5l1.15-1.28v10.58Z"/>
          <path class="cls-2" d="M422.79,189.64v-17.9h6.98c2.32,0,4.14.55,5.47,1.65,1.33,1.1,1.99,2.63,1.99,4.59,0,1.3-.3,2.41-.9,3.34s-1.45,1.64-2.56,2.13c-1.11.5-2.45.74-4.01.74h-5.57l1.15-1.18v6.62h-2.56ZM425.35,183.27l-1.15-1.25h5.5c1.64,0,2.88-.35,3.72-1.06.84-.71,1.26-1.7,1.26-2.98s-.42-2.27-1.26-2.97c-.84-.7-2.08-1.05-3.72-1.05h-5.5l1.15-1.28v10.58ZM434.76,189.64l-4.55-6.49h2.74l4.6,6.49h-2.79Z"/>
          <path class="cls-2" d="M452.37,189.64v-17.9h12.63v2.22h-10.07v13.45h10.43v2.22h-12.99ZM454.7,181.64v-2.17h9.2v2.17h-9.2Z"/>
          <path class="cls-2" d="M484.05,189.64v-15.67h-6.14v-2.22h14.8v2.22h-6.14v15.67h-2.53Z"/>
          <path class="cls-2" d="M506.5,189.64v-17.9h12.63v2.22h-10.07v13.45h10.43v2.22h-12.99ZM508.82,181.64v-2.17h9.2v2.17h-9.2ZM510.9,170.29l3.48-3.32h3.12l-4.3,3.32h-2.3Z"/>
          <path class="cls-2" d="M557.71,189.85c-1.36,0-2.67-.21-3.91-.63-1.24-.42-2.22-.96-2.94-1.62l.95-1.99c.68.6,1.55,1.09,2.61,1.48,1.06.39,2.16.59,3.3.59,1.04,0,1.88-.12,2.53-.36.65-.24,1.13-.57,1.43-.98.31-.42.46-.89.46-1.42,0-.61-.2-1.11-.6-1.48-.4-.38-.92-.68-1.56-.91-.64-.23-1.34-.43-2.11-.6-.77-.17-1.54-.37-2.31-.6-.78-.23-1.48-.52-2.12-.88s-1.16-.84-1.55-1.44c-.39-.6-.59-1.38-.59-2.34s.24-1.77.73-2.54c.49-.78,1.24-1.4,2.25-1.87s2.3-.7,3.87-.7c1.04,0,2.07.14,3.09.41s1.91.66,2.66,1.18l-.84,2.05c-.77-.51-1.58-.88-2.43-1.11-.85-.23-1.68-.35-2.48-.35-1.01,0-1.83.13-2.48.38-.65.26-1.12.6-1.42,1.02-.3.43-.45.9-.45,1.43,0,.63.2,1.13.6,1.51s.92.67,1.56.89c.64.22,1.34.42,2.11.6.77.18,1.54.38,2.31.6.78.22,1.48.51,2.12.87.64.36,1.15.83,1.55,1.43.39.6.59,1.36.59,2.3s-.25,1.74-.74,2.52c-.49.78-1.26,1.4-2.29,1.87-1.03.47-2.33.7-3.9.7Z"/>
          <path class="cls-2" d="M576.65,189.64l8.1-17.9h2.53l8.13,17.9h-2.68l-7.24-16.47h1.02l-7.24,16.47h-2.63ZM580.1,185.17l.69-2.05h10.07l.74,2.05h-11.51Z"/>
          <path class="cls-2" d="M609.07,189.64v-17.9h2.1l11.84,14.7h-1.1v-14.7h2.56v17.9h-2.1l-11.84-14.7h1.1v14.7h-2.56Z"/>
          <path class="cls-2" d="M646.04,189.85c-1.36,0-2.67-.21-3.91-.63-1.24-.42-2.22-.96-2.94-1.62l.95-1.99c.68.6,1.55,1.09,2.61,1.48,1.06.39,2.16.59,3.3.59,1.04,0,1.88-.12,2.53-.36.65-.24,1.13-.57,1.43-.98.31-.42.46-.89.46-1.42,0-.61-.2-1.11-.6-1.48-.4-.38-.92-.68-1.56-.91-.64-.23-1.34-.43-2.11-.6-.77-.17-1.54-.37-2.31-.6-.78-.23-1.48-.52-2.12-.88s-1.16-.84-1.55-1.44c-.39-.6-.59-1.38-.59-2.34s.24-1.77.73-2.54c.49-.78,1.24-1.4,2.25-1.87s2.3-.7,3.87-.7c1.04,0,2.07.14,3.09.41s1.91.66,2.66,1.18l-.84,2.05c-.77-.51-1.58-.88-2.43-1.11-.85-.23-1.68-.35-2.48-.35-1.01,0-1.83.13-2.48.38-.65.26-1.12.6-1.42,1.02-.3.43-.45.9-.45,1.43,0,.63.2,1.13.6,1.51s.92.67,1.56.89c.64.22,1.34.42,2.11.6.77.18,1.54.38,2.31.6.78.22,1.48.51,2.12.87.64.36,1.15.83,1.55,1.43.39.6.59,1.36.59,2.3s-.25,1.74-.74,2.52c-.49.78-1.26,1.4-2.29,1.87-1.03.47-2.33.7-3.9.7Z"/>
          <path class="cls-2" d="M693.57,189.85c-1.36,0-2.62-.23-3.77-.68s-2.15-1.09-2.99-1.92c-.84-.83-1.5-1.79-1.98-2.9-.48-1.11-.72-2.33-.72-3.65s.24-2.55.72-3.66c.48-1.11,1.14-2.08,1.99-2.9.85-.83,1.85-1.47,3-1.92,1.15-.45,2.41-.68,3.77-.68s2.65.23,3.82.7c1.17.47,2.16,1.16,2.98,2.08l-1.66,1.61c-.68-.72-1.45-1.25-2.3-1.6-.85-.35-1.76-.52-2.74-.52s-1.94.17-2.8.51c-.86.34-1.61.82-2.24,1.43s-1.12,1.34-1.47,2.19c-.35.84-.52,1.76-.52,2.75s.17,1.9.52,2.75c.35.84.84,1.57,1.47,2.19s1.38,1.09,2.24,1.43c.86.34,1.79.51,2.8.51s1.88-.17,2.74-.52c.85-.35,1.62-.89,2.3-1.62l1.66,1.61c-.82.92-1.81,1.62-2.98,2.1-1.17.48-2.45.72-3.85.72Z"/>
          <path class="cls-2" d="M721.97,189.85c-1.36,0-2.63-.23-3.8-.69-1.17-.46-2.18-1.1-3.03-1.93-.85-.83-1.52-1.79-1.99-2.9-.48-1.11-.72-2.32-.72-3.63s.24-2.52.72-3.63c.48-1.11,1.14-2.07,1.99-2.9.85-.83,1.86-1.47,3.02-1.93,1.16-.46,2.43-.69,3.81-.69s2.62.23,3.77.68,2.16,1.09,3.02,1.92c.86.83,1.53,1.79,1.99,2.9.47,1.11.7,2.33.7,3.66s-.23,2.55-.7,3.65c-.47,1.11-1.13,2.08-1.99,2.9-.86.83-1.87,1.47-3.02,1.92s-2.41.68-3.77.68ZM721.97,187.57c.99,0,1.91-.17,2.75-.51s1.58-.82,2.2-1.44c.62-.62,1.11-1.35,1.46-2.19.35-.84.52-1.75.52-2.74s-.17-1.9-.52-2.74c-.35-.83-.84-1.56-1.46-2.19s-1.35-1.1-2.2-1.44-1.76-.51-2.75-.51-1.93.17-2.77.51-1.58.82-2.21,1.44c-.63.62-1.12,1.35-1.47,2.19-.35.84-.52,1.75-.52,2.74s.17,1.9.52,2.74c.35.83.84,1.56,1.47,2.19.63.62,1.37,1.1,2.21,1.44s1.77.51,2.77.51Z"/>
          <path class="cls-2" d="M746.36,189.64v-17.9h2.1l8.03,13.52h-1.12l7.93-13.52h2.1l.03,17.9h-2.45l-.03-14.04h.59l-7.06,11.86h-1.18l-7.11-11.86h.64v14.04h-2.45Z"/>
          <path class="cls-2" d="M781.77,189.64v-17.9h6.98c1.57,0,2.91.25,4.01.74,1.11.5,1.96,1.21,2.56,2.15.6.94.89,2.05.89,3.35s-.3,2.41-.89,3.34c-.6.93-1.45,1.64-2.56,2.15-1.11.5-2.45.75-4.01.75h-5.57l1.15-1.2v6.62h-2.56ZM784.33,183.27l-1.15-1.28h5.5c1.64,0,2.88-.35,3.72-1.05s1.27-1.69,1.27-2.97-.42-2.27-1.27-2.97-2.08-1.05-3.72-1.05h-5.5l1.15-1.28v10.58Z"/>
          <path class="cls-2" d="M810.97,189.64v-17.9h6.98c2.32,0,4.14.55,5.47,1.65,1.33,1.1,1.99,2.63,1.99,4.59,0,1.3-.3,2.41-.9,3.34s-1.45,1.64-2.56,2.13c-1.11.5-2.45.74-4.01.74h-5.57l1.15-1.18v6.62h-2.56ZM813.53,183.27l-1.15-1.25h5.5c1.64,0,2.88-.35,3.72-1.06.84-.71,1.26-1.7,1.26-2.98s-.42-2.27-1.26-2.97c-.84-.7-2.08-1.05-3.72-1.05h-5.5l1.15-1.28v10.58ZM822.94,189.64l-4.55-6.49h2.74l4.6,6.49h-2.79Z"/>
          <path class="cls-2" d="M848.63,189.85c-1.36,0-2.63-.23-3.8-.69s-2.18-1.1-3.03-1.93c-.85-.83-1.52-1.79-1.99-2.9s-.72-2.32-.72-3.63.24-2.52.72-3.63c.48-1.11,1.14-2.07,1.99-2.9.85-.83,1.86-1.47,3.02-1.93s2.43-.69,3.81-.69,2.62.23,3.77.68c1.15.45,2.16,1.09,3.02,1.92.86.83,1.53,1.79,1.99,2.9.47,1.11.7,2.33.7,3.66s-.23,2.55-.7,3.65c-.47,1.11-1.13,2.08-1.99,2.9-.86.83-1.87,1.47-3.02,1.92-1.15.45-2.41.68-3.77.68ZM848.63,187.57c.99,0,1.9-.17,2.75-.51.84-.34,1.58-.82,2.2-1.44.62-.62,1.11-1.35,1.46-2.19.35-.84.52-1.75.52-2.74s-.17-1.9-.52-2.74c-.35-.83-.83-1.56-1.46-2.19s-1.35-1.1-2.2-1.44c-.84-.34-1.76-.51-2.75-.51s-1.93.17-2.77.51-1.58.82-2.21,1.44-1.12,1.35-1.47,2.19c-.35.84-.52,1.75-.52,2.74s.17,1.9.52,2.74c.35.83.84,1.56,1.47,2.19.63.62,1.37,1.1,2.21,1.44s1.77.51,2.77.51Z"/>
          <path class="cls-2" d="M873.02,189.64v-17.9h2.1l8.03,13.52h-1.12l7.93-13.52h2.1l.02,17.9h-2.45l-.02-14.04h.59l-7.06,11.86h-1.18l-7.11-11.86h.64v14.04h-2.45Z"/>
          <path class="cls-2" d="M908.43,189.64v-17.9h2.56v17.9h-2.56Z"/>
          <path class="cls-2" d="M932.56,189.85c-1.36,0-2.67-.21-3.91-.63-1.24-.42-2.22-.96-2.94-1.62l.95-1.99c.68.6,1.55,1.09,2.61,1.48,1.06.39,2.16.59,3.3.59,1.04,0,1.88-.12,2.53-.36.65-.24,1.13-.57,1.43-.98.31-.42.46-.89.46-1.42,0-.61-.2-1.11-.6-1.48-.4-.38-.92-.68-1.56-.91-.64-.23-1.34-.43-2.11-.6-.77-.17-1.54-.37-2.31-.6-.78-.23-1.48-.52-2.12-.88s-1.16-.84-1.55-1.44c-.39-.6-.59-1.38-.59-2.34s.24-1.77.73-2.54c.49-.78,1.24-1.4,2.25-1.87s2.3-.7,3.87-.7c1.04,0,2.07.14,3.09.41s1.91.66,2.66,1.18l-.84,2.05c-.77-.51-1.58-.88-2.43-1.11-.85-.23-1.68-.35-2.48-.35-1.01,0-1.83.13-2.48.38-.65.26-1.12.6-1.42,1.02-.3.43-.45.9-.45,1.43,0,.63.2,1.13.6,1.51s.92.67,1.56.89c.64.22,1.34.42,2.11.6.77.18,1.54.38,2.31.6.78.22,1.48.51,2.12.87.64.36,1.15.83,1.55,1.43.39.6.59,1.36.59,2.3s-.25,1.74-.74,2.52c-.49.78-1.26,1.4-2.29,1.87-1.03.47-2.33.7-3.9.7Z"/>
        </g>
      </g>
    </g>
  </g>
</svg>